# xmcd
#
# Track frame offsets: 
#        150
#        37033
#        63732
#        88888
#        111801
#        133483
#        159021
#        167012
#        184858
#        213977
#        245260
#
# Disc length: 3534 seconds
#
# Revision: 0
# Processed by: cddbd v1.5.2PL0 Copyright (c) Steve Scherf et al.
# Submitted via: ExactAudioCopy v0.95a4
#
DISCID=9b0dcc0b
DTITLE=David Bromberg - St. John's University - Collegeville MN 4-16-1
DTITLE=975
DYEAR=1975
DGENRE=Folk
TTITLE0=Hard Working John
TTITLE1=Send Me to the 'Lectric Chair
TTITLE2=Nashville Again
TTITLE3=Mr. Blue
TTITLE4=(What a) Wonderful World
TTITLE5=I Like to Sleep Late in the Morning
TTITLE6=Intros
TTITLE7=Bedbug Blues
TTITLE8=Yankee's Revenge (Medley)
TTITLE9=Suffer to Sing the Blues
TTITLE10=Long Tall Mama
EXTD=
EXTT0=
EXTT1=
EXTT2=
EXTT3=
EXTT4=
EXTT5=
EXTT6=
EXTT7=
EXTT8=
EXTT9=
EXTT10=
PLAYORDER=
